{
  "accessors": [
    {
      "bufferView": 0,
      "componentType": 5123,
      "count": 342222,
      "max": [
        342221.0
      ],
      "min": [
        0.0
      ],
      "name": "buffer-0-accessor-indices-buffer-0-mesh-0",
      "type": "SCALAR"
    },
    {
      "bufferView": 1,
      "componentType": 5126,
      "count": 57039,
      "max": [
        194.44589233398438,
        149.55068969726563,
        9.979156494140625
      ],
      "min": [
        -198.04957580566406,
        -149.84278869628906,
        -9.974945068359375
      ],
      "name": "buffer-0-accessor-position-buffer-0-mesh-0",
      "type": "VEC3"
    },
    {
      "bufferView": 1,
      "byteOffset": 684468,
      "componentType": 5126,
      "count": 57039,
      "name": "buffer-0-accessor-normal-buffer-0-mesh-0",
      "type": "VEC3"
    },
    {
      "bufferView": 1,
      "byteOffset": 1368936,
      "componentType": 5126,
      "count": 57039,
      "name": "buffer-0-accessor-color-buffer-0-mesh-0",
      "type": "VEC3"
    }
  ],
  "asset": {
    "generator": "Open3D",
    "version": "2.0"
  },
  "bufferViews": [
    {
      "buffer": 0,
      "byteLength": 684444,
      "name": "buffer-0-bufferview-ushort",
      "target": 34963
    },
    {
      "buffer": 0,
      "byteLength": 2053404,
      "byteOffset": 684444,
      "byteStride": 12,
      "name": "buffer-0-bufferview-vec3",
      "target": 34962
    }
  ],
  "buffers": [
    {
      "byteLength": 2737848,
      "uri": "data:application/octet-stream;base64,"
    }
  ],
  "meshes": [
    {
      "primitives": [
        {
          "attributes": {
            "COLOR_0": 3,
            "NORMAL": 2,
            "POSITION": 1
          },
          "indices": 0,
          "mode": 4
        }
      ]
    }
  ],
  "nodes": [
    {
      "mesh": 0
    }
  ],
  "scene": 0,
  "scenes": [
    {
      "nodes": [
        0
      ]
    }
  ]
}
