{
  "accessors": [
    {
      "bufferView": 0,
      "componentType": 5123,
      "count": 340128,
      "max": [
        340127.0
      ],
      "min": [
        0.0
      ],
      "name": "buffer-0-accessor-indices-buffer-0-mesh-0",
      "type": "SCALAR"
    },
    {
      "bufferView": 1,
      "componentType": 5126,
      "count": 56690,
      "max": [
        0.12999075819994488,
        0.12253554226779251,
        0.004988962162359182
      ],
      "min": [
        -0.15813711045239742,
        -0.12926315615750017,
        -0.004991094600336131
      ],
      "name": "buffer-0-accessor-position-buffer-0-mesh-0",
      "type": "VEC3"
    },
    {
      "bufferView": 1,
      "byteOffset": 680280,
      "componentType": 5126,
      "count": 56690,
      "name": "buffer-0-accessor-normal-buffer-0-mesh-0",
      "type": "VEC3"
    },
    {
      "bufferView": 1,
      "byteOffset": 1360560,
      "componentType": 5126,
      "count": 56690,
      "name": "buffer-0-accessor-color-buffer-0-mesh-0",
      "type": "VEC3"
    }
  ],
  "asset": {
    "generator": "Open3D",
    "version": "2.0"
  },
  "bufferViews": [
    {
      "buffer": 0,
      "byteLength": 680256,
      "name": "buffer-0-bufferview-ushort",
      "target": 34963
    },
    {
      "buffer": 0,
      "byteLength": 2040840,
      "byteOffset": 680256,
      "byteStride": 12,
      "name": "buffer-0-bufferview-vec3",
      "target": 34962
    }
  ],
  "buffers": [
    {
      "byteLength": 2721096,
      "uri": "data:application/octet-stream;base64,"
    }
  ],
  "meshes": [
    {
      "primitives": [
        {
          "attributes": {
            "COLOR_0": 3,
            "NORMAL": 2,
            "POSITION": 1
          },
          "indices": 0,
          "mode": 4
        }
      ]
    }
  ],
  "nodes": [
    {
      "mesh": 0
    }
  ],
  "scene": 0,
  "scenes": [
    {
      "nodes": [
        0
      ]
    }
  ]
}
